<svg width="200" height="60" viewBox="0 0 200 60" fill="none" xmlns="http://www.w3.org/2000/svg">
  <!-- Background circle for logo icon -->
  <circle cx="30" cy="30" r="25" fill="#00ae98" opacity="0.1"/>
  
  <!-- Car silhouette icon -->
  <path d="M15 35C15 32 17 30 20 30H35C38 30 40 32 40 35V38C40 40 38 42 35 42H20C17 42 15 40 15 38V35Z" fill="#00ae98"/>
  <path d="M25 25C25 23 27 22 30 22H45C48 22 50 23 50 25V28C50 30 48 32 45 32H30C27 32 25 30 25 28V25Z" fill="#00ae98"/>
  
  <!-- Car details -->
  <circle cx="22" cy="40" r="3" fill="#ffffff"/>
  <circle cx="33" cy="40" r="3" fill="#ffffff"/>
  <circle cx="47" cy="40" r="3" fill="#ffffff"/>
  
  <!-- Company name -->
  <text x="70" y="25" font-family="Arial, sans-serif" font-size="14" font-weight="bold" fill="#00ae98">One Detail</text>
  <text x="70" y="40" font-family="Arial, sans-serif" font-size="12" fill="#ffffff">At A Time</text>
  
  <!-- Underline accent -->
  <rect x="70" y="30" width="80" height="2" fill="#00ae98" opacity="0.3"/>
</svg>